<svg width="16" height="16" viewBox="0 0 16 16" fill="none" xmlns="http://www.w3.org/2000/svg">
<path d="M13.8067 4.69354C13.58 4.9202 13.36 5.1402 13.3533 5.3602C13.3333 5.57354 13.56 5.79354 13.7733 6.0002C14.0933 6.33354 14.4067 6.63353 14.3933 6.9602C14.38 7.28687 14.04 7.62687 13.7 7.9602L10.9467 10.7202L10 9.77353L12.8333 6.94687L12.1933 6.30687L11.2467 7.24687L8.74667 4.74687L11.3067 2.19354C11.5667 1.93354 12 1.93354 12.2467 2.19354L13.8067 3.75354C14.0667 4.0002 14.0667 4.43354 13.8067 4.69354ZM2 11.5002L8.37333 5.1202L10.8733 7.6202L4.5 14.0002H2V11.5002Z" fill="white"/>
</svg>
